<?xml version="1.0" standalone="no"?>
<!DOCTYPE svg PUBLIC "-//W3C//DTD SVG 20010904//EN"
 "http://www.w3.org/TR/2001/REC-SVG-20010904/DTD/svg10.dtd">
<svg version="1.0" xmlns="http://www.w3.org/2000/svg"
 width="174.000000pt" height="80.000000pt" viewBox="0 0 174.000000 80.000000"
 preserveAspectRatio="xMidYMid meet">

<g transform="translate(0.000000,80.000000) scale(0.100000,-0.100000)"
fill="#000000" stroke="none">
<path d="M173 777 l-83 -19 0 -69 0 -69 -45 0 -45 0 0 -65 0 -65 45 0 45 0 0
-85 c0 -99 14 -139 59 -178 30 -25 40 -27 117 -27 l84 0 0 70 0 70 -33 0 c-47
0 -57 15 -57 87 l0 64 71 -3 71 -3 51 -134 c58 -151 57 -163 -15 -210 l-37
-23 27 -54 c14 -30 31 -54 37 -54 15 0 76 38 108 69 53 48 84 105 152 281 37
96 72 179 76 185 5 5 9 -112 9 -263 l0 -272 80 0 80 0 0 100 0 100 26 -10 c36
-14 119 -12 157 4 42 17 94 71 109 113 l12 33 25 -47 c40 -72 103 -107 203
-112 81 -3 119 6 171 42 l29 20 -43 43 c-39 40 -44 42 -60 28 -40 -36 -159
-21 -159 21 0 13 24 15 145 15 l145 0 0 58 c0 75 -31 137 -88 177 -37 25 -55
30 -118 33 -65 4 -81 1 -129 -23 -53 -25 -89 -62 -111 -115 l-11 -25 -12 36
c-15 46 -73 105 -118 120 -21 6 -59 9 -92 5 -31 -3 -134 -7 -230 -8 l-174 -3
-26 -97 c-14 -53 -29 -99 -32 -102 -3 -4 -18 41 -34 99 l-28 105 -133 0 -133
0 -3 88 -3 87 -82 -18z m1387 -277 c33 -33 24 -40 -55 -40 -72 0 -75 1 -65 20
23 43 87 53 120 20z m-469 -41 c17 -17 20 -29 15 -58 -3 -20 -13 -42 -23 -48
-24 -18 -73 -16 -95 4 -23 20 -24 80 -1 105 22 25 77 24 104 -3z"/>
</g>
</svg>
